<?xml version="1.0" encoding="utf-8"?>
<!-- Generator: Adobe Illustrator 28.2.0, SVG Export Plug-In . SVG Version: 6.00 Build 0)  -->
<svg version="1.1" id="Artwork" xmlns="http://www.w3.org/2000/svg" xmlns:xlink="http://www.w3.org/1999/xlink" x="0px" y="0px"
	 width="126.332px" height="40px" viewBox="0 0 126.332 40" style="enable-background:new 0 0 126.332 40;" xml:space="preserve">
<style type="text/css">
	.st0{fill:#A6A6A6;}
	.st1{fill:#FFFFFF;}
</style>
<g>
	<g>
		<g>
			<path class="st0" d="M116.803,0H9.535C9.168,0,8.806,0,8.44,0.002C8.134,0.004,7.83,0.01,7.521,0.015
				C6.855,0.031,6.182,0.072,5.517,0.191C4.848,0.309,4.226,0.509,3.616,0.818C3.018,1.125,2.471,1.523,1.998,1.997
				C1.519,2.471,1.123,3.02,0.819,3.618C0.508,4.227,0.311,4.852,0.194,5.521C0.074,6.184,0.032,6.854,0.015,7.523
				C0.006,7.83,0.005,8.138,0,8.444C0,8.807,0,9.17,0,9.536v20.929c0,0.369,0,0.73,0,1.094c0.005,0.311,0.006,0.611,0.015,0.922
				c0.017,0.67,0.059,1.34,0.179,2.002c0.117,0.67,0.314,1.298,0.625,1.904c0.303,0.596,0.7,1.145,1.178,1.614
				c0.473,0.478,1.02,0.875,1.619,1.179c0.609,0.312,1.231,0.51,1.901,0.631c0.665,0.119,1.338,0.158,2.004,0.177
				c0.309,0.007,0.613,0.011,0.919,0.011C8.806,40,9.168,40,9.535,40h107.268c0.359,0,0.725,0,1.084-0.002
				c0.305,0,0.617-0.004,0.922-0.011c0.67-0.019,1.342-0.058,2-0.177c0.67-0.121,1.293-0.318,1.908-0.631
				c0.598-0.304,1.145-0.701,1.617-1.179c0.477-0.47,0.873-1.019,1.182-1.614c0.307-0.606,0.506-1.234,0.619-1.904
				c0.123-0.662,0.162-1.332,0.186-2.002c0.004-0.311,0.004-0.611,0.004-0.922c0.008-0.363,0.008-0.725,0.008-1.094V9.536
				c0-0.366,0-0.729-0.008-1.092c0-0.307,0-0.614-0.004-0.921c-0.023-0.67-0.062-1.34-0.186-2.002
				c-0.113-0.67-0.312-1.295-0.619-1.903c-0.309-0.599-0.705-1.147-1.182-1.621c-0.473-0.474-1.02-0.872-1.617-1.179
				c-0.615-0.31-1.238-0.51-1.908-0.627c-0.658-0.119-1.33-0.16-2-0.177c-0.305-0.005-0.617-0.011-0.922-0.013
				C117.528,0,117.162,0,116.803,0L116.803,0z"/>
			<path d="M8.445,39.125c-0.305,0-0.602-0.004-0.904-0.011c-0.559-0.016-1.222-0.047-1.869-0.163
				c-0.61-0.11-1.153-0.29-1.657-0.548c-0.521-0.265-0.99-0.606-1.397-1.017c-0.414-0.406-0.754-0.873-1.021-1.396
				c-0.259-0.505-0.437-1.047-0.543-1.657c-0.122-0.673-0.153-1.355-0.166-1.875c-0.006-0.211-0.015-0.913-0.015-0.913V8.444
				c0,0,0.009-0.691,0.015-0.895c0.013-0.524,0.044-1.206,0.166-1.872C1.16,5.064,1.337,4.522,1.597,4.016
				c0.266-0.524,0.606-0.994,1.015-1.398c0.414-0.414,0.884-0.757,1.402-1.022c0.514-0.261,1.055-0.439,1.653-0.544
				C6.341,0.931,7.023,0.9,7.543,0.887l0.902-0.012h109.437l0.913,0.013c0.513,0.013,1.195,0.043,1.858,0.163
				c0.603,0.105,1.147,0.285,1.671,0.548c0.513,0.263,0.982,0.605,1.392,1.016c0.409,0.406,0.752,0.878,1.023,1.404
				c0.258,0.511,0.434,1.053,0.535,1.649c0.116,0.631,0.152,1.279,0.174,1.887c0.003,0.283,0.003,0.587,0.003,0.89
				c0.008,0.375,0.008,0.732,0.008,1.092v20.929c0,0.363,0,0.718-0.008,1.075c0,0.325,0,0.623-0.004,0.93
				c-0.021,0.589-0.057,1.236-0.171,1.854c-0.104,0.613-0.279,1.155-0.54,1.67c-0.27,0.52-0.612,0.989-1.016,1.386
				c-0.413,0.418-0.882,0.759-1.399,1.023c-0.519,0.264-1.048,0.438-1.668,0.55c-0.641,0.116-1.304,0.147-1.869,0.163
				c-0.293,0.007-0.6,0.011-0.897,0.011l-1.084,0.002L8.445,39.125z"/>
		</g>
	</g>
	<g id="XMLID_00000139290331610212528920000012301831522409960630_">
		<g id="XMLID_00000104706334592747403040000013653152789040789422_">
			<path id="XMLID_00000079458005160074034610000000109891502907411606_" class="st1" d="M24.769,20.301
				c-0.025-2.751,2.252-4.089,2.357-4.152c-1.29-1.881-3.289-2.138-3.991-2.158c-1.679-0.176-3.307,1.005-4.163,1.005
				c-0.872,0-2.19-0.987-3.609-0.958c-1.826,0.028-3.536,1.086-4.473,2.728c-1.934,3.348-0.491,8.269,1.361,10.976
				c0.927,1.325,2.01,2.806,3.428,2.753c1.387-0.058,1.905-0.884,3.579-0.884c1.659,0,2.145,0.884,3.591,0.851
				c1.488-0.024,2.426-1.331,3.321-2.669c1.071-1.52,1.501-3.016,1.518-3.093C27.653,24.688,24.797,23.599,24.769,20.301z"/>
			<path id="XMLID_00000093165059745615487120000011054324997917028511_" class="st1" d="M22.037,12.211
				c0.746-0.933,1.256-2.202,1.115-3.491c-1.08,0.048-2.43,0.746-3.208,1.66c-0.688,0.804-1.302,2.122-1.144,3.361
				C20.013,13.831,21.259,13.129,22.037,12.211z"/>
		</g>
	</g>
	<g id="XMLID_00000011723203624071575150000014298773279749632141_">
		<g>
			<path class="st1" d="M35.669,18.078h1.859v12.418h-1.859V18.078z"/>
			<path class="st1" d="M39.919,18.078h1.859l-1.256,4.406h-1.308L39.919,18.078z"/>
			<path class="st1" d="M45.615,18.078h2.083l4.509,12.418h-2.022l-1.136-3.356h-4.785l-1.145,3.356h-2.022L45.615,18.078z
				 M44.781,25.591h3.744l-1.851-5.456H46.64L44.781,25.591z"/>
			<path class="st1" d="M53.349,21.443h1.859V23h0.043c0.542-1.075,1.541-1.729,2.832-1.729c2.306,0,3.787,1.808,3.787,4.699v0.008
				c0,2.884-1.489,4.699-3.761,4.699c-1.282,0-2.323-0.654-2.857-1.704h-0.043v4.535h-1.859V21.443z M59.976,25.978V25.97
				c0-1.928-0.921-3.107-2.375-3.107c-1.412,0-2.401,1.223-2.401,3.107v0.008c0,1.877,0.999,3.099,2.401,3.099
				C59.063,29.076,59.976,27.889,59.976,25.978z"/>
			<path class="st1" d="M63.303,21.443h1.859V23h0.043c0.542-1.075,1.541-1.729,2.832-1.729c2.306,0,3.787,1.808,3.787,4.699v0.008
				c0,2.884-1.489,4.699-3.761,4.699c-1.282,0-2.323-0.654-2.857-1.704h-0.043v4.535h-1.859V21.443z M69.93,25.978V25.97
				c0-1.928-0.921-3.107-2.375-3.107c-1.412,0-2.401,1.223-2.401,3.107v0.008c0,1.877,0.999,3.099,2.401,3.099
				C69.018,29.076,69.93,27.889,69.93,25.978z"/>
			<path class="st1" d="M76.519,27.192l-0.008-0.129h1.876l0.017,0.111c0.172,1.145,1.317,1.859,2.978,1.859
				c1.661,0,2.711-0.749,2.711-1.91v-0.009c0-0.999-0.68-1.541-2.324-1.902l-1.351-0.284c-2.436-0.516-3.614-1.635-3.614-3.477
				v-0.009c0.008-2.117,1.876-3.571,4.501-3.571c2.59,0,4.363,1.411,4.492,3.494l0.008,0.146h-1.876l-0.008-0.121
				c-0.172-1.152-1.17-1.85-2.642-1.85c-1.541,0.008-2.521,0.74-2.521,1.824v0.009c0,0.929,0.706,1.497,2.254,1.833l1.36,0.284
				c2.564,0.542,3.666,1.583,3.666,3.502v0.009c0,2.264-1.79,3.701-4.733,3.701C78.515,30.703,76.673,29.377,76.519,27.192z"/>
			<path class="st1" d="M88.135,28.112v-5.189h-1.299v-1.48h1.299v-2.357h1.902v2.357h1.695v1.48h-1.695V28
				c0,0.921,0.413,1.196,1.196,1.196c0.198,0,0.361-0.017,0.499-0.034V30.6c-0.215,0.034-0.568,0.077-0.947,0.077
				C88.996,30.677,88.135,29.92,88.135,28.112z"/>
			<path class="st1" d="M92.752,25.97v-0.018c0-2.892,1.713-4.682,4.286-4.682c2.582,0,4.303,1.781,4.303,4.682v0.018
				c0,2.917-1.704,4.707-4.294,4.707C94.448,30.677,92.752,28.878,92.752,25.97z M99.439,25.97v-0.018
				c0-1.979-0.947-3.124-2.401-3.124c-1.429,0-2.384,1.145-2.384,3.124v0.018c0,2.005,0.946,3.149,2.401,3.149
				S99.439,27.966,99.439,25.97z"/>
			<path class="st1" d="M102.864,21.443h1.859v1.55h0.043c0.292-1.059,1.05-1.722,2.083-1.722c0.267,0,0.499,0.043,0.646,0.069
				v1.729c-0.146-0.061-0.473-0.104-0.835-0.104c-1.196,0-1.936,0.783-1.936,2.135v5.396h-1.859V21.443z"/>
			<path class="st1" d="M107.888,26.004v-0.009c0-2.831,1.635-4.725,4.174-4.725c2.539,0,4.096,1.824,4.096,4.544v0.628h-6.411
				c0.034,1.713,0.972,2.711,2.453,2.711c1.102,0,1.833-0.567,2.065-1.248l0.026-0.068h1.764l-0.018,0.095
				c-0.292,1.438-1.687,2.745-3.881,2.745C109.498,30.677,107.888,28.862,107.888,26.004z M109.773,25.126h4.544
				c-0.155-1.566-1.033-2.332-2.246-2.332C110.866,22.794,109.937,23.612,109.773,25.126z"/>
		</g>
	</g>
	<g>
		<path class="st1" d="M35.667,8.709h2.163c1.776,0,2.818,1.096,2.818,2.976v0.008c0,1.901-1.033,3.005-2.818,3.005h-2.163V8.709z
			 M37.726,13.897c1.254,0,1.976-0.801,1.976-2.191v-0.009c0-1.378-0.734-2.187-1.976-2.187h-1.129v4.387H37.726z"/>
		<path class="st1" d="M41.688,12.457v-0.004c0-1.407,0.813-2.35,2.071-2.35c1.258,0,2.03,0.909,2.03,2.262v0.315h-3.196
			c0.017,0.863,0.49,1.366,1.232,1.366c0.577,0,0.922-0.287,1.029-0.519l0.017-0.033l0.868-0.004l-0.008,0.038
			c-0.149,0.593-0.772,1.257-1.926,1.257C42.485,14.785,41.688,13.884,41.688,12.457z M42.606,12.038h2.291
			c-0.071-0.806-0.523-1.195-1.133-1.195C43.149,10.842,42.685,11.261,42.606,12.038z"/>
		<path class="st1" d="M46.746,13.519v-0.004h0.901l0.004,0.004c0.112,0.34,0.44,0.568,0.976,0.568c0.556,0,0.942-0.253,0.942-0.622
			v-0.009c0-0.282-0.211-0.473-0.735-0.593l-0.718-0.166c-0.851-0.195-1.245-0.581-1.245-1.241v-0.004
			c0-0.785,0.73-1.349,1.751-1.349c1.029,0,1.689,0.515,1.768,1.25v0.004h-0.859v-0.009c-0.087-0.315-0.406-0.552-0.913-0.552
			c-0.494,0-0.851,0.245-0.851,0.606v0.008c0,0.282,0.208,0.457,0.714,0.577l0.714,0.162c0.867,0.204,1.282,0.573,1.282,1.224v0.009
			c0,0.834-0.797,1.402-1.867,1.402C47.522,14.785,46.833,14.275,46.746,13.519z"/>
		<path class="st1" d="M51.438,12.432v-0.008c0-1.428,0.801-2.32,2.117-2.32c1.133,0,1.81,0.64,1.934,1.515v0.021l-0.863,0.004
			l-0.004-0.013c-0.1-0.444-0.465-0.776-1.062-0.776c-0.751,0-1.203,0.598-1.203,1.569v0.008c0,0.996,0.46,1.602,1.203,1.602
			c0.564,0,0.913-0.257,1.059-0.743l0.008-0.021h0.863l-0.008,0.037c-0.162,0.876-0.805,1.478-1.922,1.478
			C52.244,14.785,51.438,13.888,51.438,12.432z"/>
		<path class="st1" d="M56.359,13.432v-0.009c0-0.805,0.606-1.274,1.681-1.34l1.22-0.071v-0.398c0-0.494-0.311-0.768-0.921-0.768
			c-0.498,0-0.826,0.183-0.934,0.502l-0.004,0.017h-0.867l0.004-0.029c0.108-0.739,0.818-1.233,1.843-1.233
			c1.133,0,1.772,0.564,1.772,1.511v3.084H59.26v-0.639h-0.07c-0.266,0.457-0.739,0.714-1.336,0.714
			C56.995,14.773,56.359,14.25,56.359,13.432z M58.094,14.054c0.672,0,1.166-0.439,1.166-1.021v-0.386l-1.1,0.071
			c-0.623,0.037-0.905,0.261-0.905,0.668v0.008C57.256,13.81,57.609,14.054,58.094,14.054z"/>
		<path class="st1" d="M61.534,10.191h0.9v0.681H62.5c0.162-0.477,0.581-0.759,1.183-0.759c0.145,0,0.303,0.021,0.394,0.041v0.83
			c-0.162-0.033-0.315-0.054-0.485-0.054c-0.689,0-1.158,0.423-1.158,1.075v2.693h-0.9V10.191z"/>
		<path class="st1" d="M65.114,10.191h0.9v0.681h0.066c0.162-0.477,0.581-0.759,1.183-0.759c0.145,0,0.303,0.021,0.394,0.041v0.83
			c-0.162-0.033-0.315-0.054-0.485-0.054c-0.689,0-1.158,0.423-1.158,1.075v2.693h-0.9V10.191z"/>
		<path class="st1" d="M68.287,12.457v-0.004c0-1.407,0.813-2.35,2.071-2.35c1.258,0,2.03,0.909,2.03,2.262v0.315h-3.196
			c0.017,0.863,0.49,1.366,1.232,1.366c0.577,0,0.922-0.287,1.029-0.519l0.017-0.033l0.868-0.004l-0.008,0.038
			c-0.149,0.593-0.772,1.257-1.926,1.257C69.084,14.785,68.287,13.884,68.287,12.457z M69.205,12.038h2.291
			c-0.071-0.806-0.523-1.195-1.133-1.195C69.748,10.842,69.283,11.261,69.205,12.038z"/>
		<path class="st1" d="M73.515,15.034l0.008-0.008h0.909l0.004,0.008c0.075,0.312,0.44,0.531,1.05,0.531
			c0.743,0,1.183-0.349,1.183-0.963v-0.888h-0.066c-0.274,0.489-0.772,0.764-1.391,0.764c-1.158,0-1.872-0.893-1.872-2.163v-0.008
			c0-1.287,0.718-2.195,1.889-2.195c0.631,0,1.121,0.311,1.382,0.817h0.054v-0.739h0.896v4.416c0,1.025-0.809,1.681-2.087,1.681
			C74.329,16.288,73.623,15.785,73.515,15.034z M76.686,12.311v-0.008c0-0.839-0.465-1.428-1.225-1.428
			c-0.768,0-1.199,0.589-1.199,1.428v0.008c0,0.839,0.432,1.424,1.199,1.424C76.225,13.735,76.686,13.154,76.686,12.311z"/>
		<path class="st1" d="M78.71,13.432v-0.009c0-0.805,0.606-1.274,1.681-1.34l1.22-0.071v-0.398c0-0.494-0.311-0.768-0.921-0.768
			c-0.498,0-0.826,0.183-0.934,0.502l-0.004,0.017h-0.867l0.004-0.029c0.108-0.739,0.818-1.233,1.843-1.233
			c1.133,0,1.772,0.564,1.772,1.511v3.084h-0.893v-0.639h-0.07c-0.266,0.457-0.739,0.714-1.336,0.714
			C79.345,14.773,78.71,14.25,78.71,13.432z M80.445,14.054c0.672,0,1.166-0.439,1.166-1.021v-0.386l-1.1,0.071
			c-0.623,0.037-0.905,0.261-0.905,0.668v0.008C79.606,13.81,79.959,14.054,80.445,14.054z"/>
		<path class="st1" d="M83.884,10.191h0.9v0.681h0.066c0.162-0.477,0.581-0.759,1.183-0.759c0.146,0,0.304,0.021,0.395,0.041v0.83
			c-0.162-0.033-0.315-0.054-0.485-0.054c-0.688,0-1.158,0.423-1.158,1.075v2.693h-0.9V10.191z"/>
		<path class="st1" d="M89.571,13.432v-0.009c0-0.805,0.606-1.274,1.682-1.34l1.22-0.071v-0.398c0-0.494-0.312-0.768-0.921-0.768
			c-0.498,0-0.826,0.183-0.934,0.502l-0.005,0.017h-0.867l0.004-0.029c0.108-0.739,0.817-1.233,1.843-1.233
			c1.133,0,1.772,0.564,1.772,1.511v3.084h-0.893v-0.639h-0.07c-0.266,0.457-0.739,0.714-1.337,0.714
			C90.207,14.773,89.571,14.25,89.571,13.432z M91.306,14.054c0.673,0,1.166-0.439,1.166-1.021v-0.386l-1.1,0.071
			c-0.622,0.037-0.905,0.261-0.905,0.668v0.008C90.467,13.81,90.821,14.054,91.306,14.054z"/>
	</g>
</g>
</svg>
