<?xml version="1.0" encoding="UTF-8"?>
<svg id="Artwork" xmlns="http://www.w3.org/2000/svg" width="121.664" height="42" version="1.1" viewBox="0 0 121.664 42">
  <defs>
    <style>
      .cls-1 {
        fill: #a6a6a6;
      }

      .cls-1, .cls-2, .cls-3 {
        stroke-width: 0px;
      }

      .cls-2 {
        fill: #000;
      }

      .cls-3 {
        fill: #fff;
      }
    </style>
  </defs>
  <g>
    <path class="cls-1" d="M111.135,1H10.535c-.367,0-.729,0-1.095.002-.306.002-.61.008-.919.013-.666.017-1.339.058-2.004.177-.669.117-1.292.317-1.901.627-.599.307-1.146.705-1.619,1.179-.479.474-.875,1.022-1.178,1.621-.311.608-.508,1.233-.625,1.903-.121.662-.162,1.332-.179,2.002-.009.307-.01.614-.015.921v23.114c.005.31.006.611.015.922.017.67.059,1.34.179,2.002.117.67.314,1.298.625,1.904.303.596.7,1.145,1.178,1.614.473.478,1.02.875,1.619,1.179.609.312,1.231.51,1.901.631.665.119,1.338.158,2.004.177.309.007.613.011.919.011.366.002.728.002,1.095.002h100.6c.359,0,.725,0,1.084-.002.305,0,.617-.004.922-.011.67-.018,1.342-.058,2-.177.67-.121,1.293-.318,1.908-.631.598-.304,1.144-.701,1.617-1.179.476-.47.873-1.019,1.182-1.614.307-.606.506-1.234.619-1.904.123-.662.162-1.332.186-2.002.004-.311.004-.611.004-.922.008-.363.008-.725.008-1.094V10.536c0-.366,0-.729-.008-1.092,0-.307,0-.614-.004-.921-.023-.67-.062-1.34-.186-2.002-.113-.67-.312-1.295-.619-1.903-.309-.599-.705-1.147-1.182-1.621-.473-.474-1.02-.872-1.617-1.179-.615-.31-1.238-.51-1.908-.627-.658-.119-1.33-.16-2-.177-.305-.005-.617-.011-.922-.013-.359-.002-.725-.002-1.084-.002h0Z"/>
    <path class="cls-2" d="M9.445,40.125c-.305,0-.602-.004-.904-.011-.559-.016-1.222-.047-1.869-.163-.61-.11-1.153-.29-1.657-.548-.521-.265-.99-.606-1.397-1.017-.414-.406-.754-.873-1.021-1.396-.259-.505-.437-1.047-.543-1.657-.122-.673-.153-1.356-.166-1.875-.006-.211-.015-.913-.015-.913V9.444s.009-.691.015-.895c.013-.524.044-1.206.166-1.872.107-.614.284-1.155.543-1.662.266-.524.606-.994,1.015-1.398.414-.414.884-.757,1.402-1.022.514-.261,1.055-.439,1.653-.544.673-.121,1.356-.151,1.875-.164l.902-.012h102.769l.913.013c.513.013,1.195.043,1.858.163.602.105,1.147.285,1.671.548.513.263.982.605,1.392,1.016.409.406.752.878,1.023,1.404.258.511.434,1.053.535,1.649.116.631.152,1.279.174,1.887.003.283.003.587.003.89.008.375.008.732.008,1.092v20.929c0,.363,0,.718-.008,1.075,0,.325,0,.623-.004.93-.02.589-.057,1.236-.171,1.854-.103.613-.279,1.155-.54,1.67-.269.519-.612.989-1.016,1.386-.413.418-.882.759-1.399,1.023-.519.264-1.048.438-1.668.55-.641.116-1.304.147-1.869.163-.293.007-.6.011-.897.011l-1.084.002-101.69-.002Z"/>
  </g>
  <g>
    <path class="cls-3" d="M108.259,21.301c-.025-2.751,2.252-4.089,2.357-4.152-1.29-1.881-3.289-2.138-3.991-2.158-1.679-.176-3.307,1.005-4.163,1.005-.872,0-2.19-.987-3.609-.958-1.826.028-3.536,1.086-4.473,2.728-1.934,3.348-.491,8.269,1.361,10.976.927,1.325,2.01,2.806,3.428,2.753,1.387-.058,1.905-.884,3.579-.884,1.659,0,2.145.884,3.591.851,1.488-.024,2.426-1.331,3.321-2.669,1.071-1.52,1.501-3.016,1.518-3.093-.035-.012-2.891-1.101-2.919-4.399Z"/>
    <path class="cls-3" d="M105.527,13.211c.746-.933,1.256-2.202,1.115-3.491-1.08.048-2.43.746-3.208,1.66-.688.804-1.302,2.122-1.144,3.361,1.213.09,2.458-.612,3.237-1.53Z"/>
  </g>
  <g>
    <path class="cls-3" d="M18.198,28.14h-4.733l-1.137,3.356h-2.005l4.483-12.418h2.083l4.483,12.418h-2.039l-1.136-3.356ZM13.955,26.591h3.752l-1.85-5.447h-.052l-1.851,5.447Z"/>
    <path class="cls-3" d="M31.056,26.97c0,2.813-1.506,4.621-3.778,4.621-1.29,0-2.314-.577-2.849-1.584h-.043v4.484h-1.858v-12.049h1.799v1.506h.034c.517-.972,1.618-1.601,2.883-1.601,2.298,0,3.812,1.816,3.812,4.622ZM29.145,26.97c0-1.833-.947-3.038-2.393-3.038-1.42,0-2.375,1.23-2.375,3.038,0,1.824.955,3.046,2.375,3.046,1.445,0,2.393-1.196,2.393-3.046Z"/>
    <path class="cls-3" d="M41.02,26.97c0,2.813-1.506,4.621-3.778,4.621-1.29,0-2.314-.577-2.849-1.584h-.043v4.484h-1.858v-12.049h1.799v1.506h.034c.517-.972,1.618-1.601,2.883-1.601,2.298,0,3.812,1.816,3.812,4.622ZM39.11,26.97c0-1.833-.947-3.038-2.393-3.038-1.42,0-2.375,1.23-2.375,3.038,0,1.824.955,3.046,2.375,3.046,1.445,0,2.393-1.196,2.393-3.046Z"/>
    <path class="cls-3" d="M47.606,28.036c.138,1.231,1.334,2.04,2.969,2.04,1.566,0,2.693-.809,2.693-1.919,0-.964-.68-1.541-2.289-1.937l-1.609-.388c-2.28-.551-3.339-1.617-3.339-3.348,0-2.143,1.867-3.614,4.519-3.614,2.624,0,4.423,1.472,4.483,3.614h-1.876c-.112-1.239-1.137-1.987-2.634-1.987s-2.521.757-2.521,1.858c0,.878.654,1.395,2.255,1.79l1.368.336c2.548.603,3.606,1.626,3.606,3.442,0,2.323-1.851,3.778-4.794,3.778-2.754,0-4.613-1.421-4.733-3.667h1.902Z"/>
    <path class="cls-3" d="M59.242,20.3v2.143h1.722v1.472h-1.722v4.991c0,.775.345,1.137,1.102,1.137.189,0,.491-.026.611-.043v1.463c-.206.052-.619.086-1.032.086-1.833,0-2.548-.688-2.548-2.444v-5.189h-1.316v-1.472h1.316v-2.143h1.867Z"/>
    <path class="cls-3" d="M61.961,26.97c0-2.849,1.678-4.639,4.294-4.639s4.295,1.79,4.295,4.639-1.661,4.639-4.295,4.639-4.294-1.782-4.294-4.639ZM68.656,26.97c0-1.954-.896-3.107-2.401-3.107s-2.4,1.162-2.4,3.107c0,1.962.895,3.106,2.4,3.106s2.401-1.145,2.401-3.106Z"/>
    <path class="cls-3" d="M72.082,22.442h1.772v1.541h.043c.284-1.024,1.11-1.636,2.178-1.636.267,0,.49.035.637.069v1.738c-.146-.061-.474-.112-.835-.112-1.196,0-1.937.81-1.937,2.083v5.37h-1.858v-9.054Z"/>
    <path class="cls-3" d="M85.28,28.837c-.25,1.644-1.851,2.771-3.898,2.771-2.634,0-4.269-1.765-4.269-4.596s1.644-4.682,4.19-4.682c2.505,0,4.08,1.721,4.08,4.466v.637h-6.395v.112c0,1.549.973,2.564,2.436,2.564,1.032,0,1.842-.49,2.091-1.273h1.765ZM78.998,26.135h4.526c-.043-1.386-.93-2.298-2.221-2.298-1.282,0-2.211.93-2.306,2.298Z"/>
  </g>
  <g>
    <path class="cls-3" d="M46.756,13.717v-.826h2.777v.826h-2.777Z"/>
    <path class="cls-3" d="M50.629,15.717v-.789h2.673v-2.17c0-.335-.03-.599-.092-.791-.061-.192-.169-.329-.323-.411-.155-.082-.374-.123-.656-.123h-1.598v-.789h1.627c.365,0,.675.033.93.1s.462.178.623.336c.16.157.277.375.351.651s.109.624.109,1.042v2.154h.784v.789h-4.428Z"/>
    <path class="cls-3" d="M61.685,15.717v-2.789c0-.368-.03-.661-.09-.88s-.174-.375-.344-.471c-.171-.095-.425-.143-.762-.143h-2.2v-.789h2.2c.539,0,.967.073,1.282.218.315.146.542.383.679.714s.205.775.205,1.334v2.806h-.971ZM58.314,15.717v-2.565h.971v2.565h-.971Z"/>
    <path class="cls-3" d="M65.989,15.717v-4.283h-2.636v-.789h4.486v.789h-.879v4.283h-.972Z"/>
    <path class="cls-3" d="M71.625,15.717v-2.826c0-.363-.031-.65-.092-.861-.061-.212-.177-.364-.349-.457s-.429-.139-.772-.139h-1.598v-.789h1.598c.543,0,.973.071,1.291.211.318.142.547.375.686.702.138.327.207.767.207,1.32v2.839h-.971Z"/>
    <path class="cls-3" d="M73.887,15.717v-5.072h.972v5.072h-.972Z"/>
    <path class="cls-3" d="M79.561,15.717v-2.789c0-.368-.03-.661-.09-.88s-.174-.375-.344-.471c-.171-.095-.425-.143-.762-.143h-2.2v-.789h2.2c.539,0,.967.073,1.282.218.315.146.542.383.679.714s.205.775.205,1.334v2.806h-.971ZM76.19,15.717v-2.565h.971v2.565h-.971Z"/>
    <path class="cls-3" d="M82.641,15.717l1.527-4.283h-2.914v-2.432h.979v1.644h2.922v.789l-1.519,4.283h-.996Z"/>
  </g>
</svg>