<?xml version="1.0" encoding="utf-8"?>
<!-- Generator: Adobe Illustrator 28.2.0, SVG Export Plug-In . SVG Version: 6.00 Build 0)  -->
<svg version="1.1" id="Artwork" xmlns="http://www.w3.org/2000/svg" xmlns:xlink="http://www.w3.org/1999/xlink" x="0px" y="0px"
	 width="130.139px" height="41px" viewBox="0 0 130.139 41" style="enable-background:new 0 0 130.139 41;" xml:space="preserve">
<style type="text/css">
	.st0{fill:#A6A6A6;}
	.st1{fill:#FFFFFF;}
</style>
<g>
	<g>
		<g>
			<path class="st0" d="M119.609,0H9.535C9.168,0,8.806,0,8.44,0.002C8.134,0.004,7.83,0.01,7.521,0.015
				C6.855,0.031,6.182,0.072,5.517,0.191C4.848,0.309,4.226,0.509,3.616,0.818C3.018,1.125,2.471,1.523,1.998,1.997
				C1.519,2.471,1.123,3.02,0.819,3.618C0.508,4.227,0.311,4.852,0.194,5.521C0.074,6.184,0.032,6.854,0.015,7.523
				C0.006,7.83,0.005,8.138,0,8.444C0,8.807,0,9.17,0,9.536v20.929c0,0.369,0,0.73,0,1.094c0.005,0.311,0.006,0.611,0.015,0.922
				c0.017,0.67,0.059,1.34,0.179,2.002c0.117,0.67,0.314,1.298,0.625,1.904c0.303,0.596,0.7,1.145,1.178,1.614
				c0.473,0.478,1.02,0.875,1.619,1.179c0.609,0.312,1.231,0.51,1.901,0.631c0.665,0.119,1.338,0.158,2.004,0.177
				c0.309,0.007,0.613,0.011,0.919,0.011C8.806,40,9.168,40,9.535,40h110.075c0.359,0,0.725,0,1.084-0.002
				c0.305,0,0.617-0.004,0.922-0.011c0.67-0.019,1.342-0.058,2-0.177c0.67-0.121,1.293-0.318,1.908-0.631
				c0.598-0.304,1.145-0.701,1.617-1.179c0.477-0.47,0.873-1.019,1.182-1.614c0.307-0.606,0.506-1.234,0.619-1.904
				c0.123-0.662,0.162-1.332,0.186-2.002c0.004-0.311,0.004-0.611,0.004-0.922c0.008-0.363,0.008-0.725,0.008-1.094V9.536
				c0-0.366,0-0.729-0.008-1.092c0-0.307,0-0.614-0.004-0.921c-0.023-0.67-0.062-1.34-0.186-2.002
				c-0.113-0.67-0.312-1.295-0.619-1.903c-0.309-0.599-0.705-1.147-1.182-1.621c-0.473-0.474-1.02-0.872-1.617-1.179
				c-0.615-0.31-1.238-0.51-1.908-0.627c-0.658-0.119-1.33-0.16-2-0.177c-0.305-0.005-0.617-0.011-0.922-0.013
				C120.334,0,119.969,0,119.609,0L119.609,0z"/>
			<path d="M8.445,39.125c-0.305,0-0.602-0.004-0.904-0.011c-0.559-0.016-1.222-0.047-1.869-0.163
				c-0.61-0.11-1.153-0.29-1.657-0.548c-0.521-0.265-0.99-0.606-1.397-1.017c-0.414-0.406-0.754-0.873-1.021-1.396
				c-0.259-0.505-0.437-1.047-0.543-1.657c-0.122-0.673-0.153-1.355-0.166-1.875c-0.006-0.211-0.015-0.913-0.015-0.913V8.444
				c0,0,0.009-0.691,0.015-0.895c0.013-0.524,0.044-1.206,0.166-1.872C1.16,5.064,1.337,4.522,1.597,4.016
				c0.266-0.524,0.606-0.994,1.015-1.398c0.414-0.414,0.884-0.757,1.402-1.022c0.514-0.261,1.055-0.439,1.653-0.544
				C6.341,0.931,7.023,0.9,7.543,0.887l0.902-0.012h112.243l0.913,0.013c0.513,0.013,1.195,0.043,1.858,0.163
				c0.603,0.105,1.147,0.285,1.671,0.548c0.513,0.263,0.982,0.605,1.392,1.016c0.409,0.406,0.752,0.878,1.023,1.404
				c0.258,0.511,0.434,1.053,0.535,1.649c0.116,0.631,0.152,1.279,0.174,1.887c0.003,0.283,0.003,0.587,0.003,0.89
				c0.008,0.375,0.008,0.732,0.008,1.092v20.929c0,0.363,0,0.718-0.008,1.075c0,0.325,0,0.623-0.004,0.93
				c-0.02,0.589-0.057,1.236-0.171,1.854c-0.104,0.613-0.279,1.155-0.54,1.67c-0.27,0.52-0.612,0.989-1.016,1.386
				c-0.413,0.418-0.882,0.759-1.399,1.023c-0.519,0.264-1.048,0.438-1.668,0.55c-0.641,0.116-1.304,0.147-1.869,0.163
				c-0.293,0.007-0.6,0.011-0.897,0.011l-1.084,0.002L8.445,39.125z"/>
		</g>
	</g>
	<g id="XMLID_00000093871508418671501250000010785652291134149816_">
		<g id="XMLID_00000173860196653421995280000001784821279750346639_">
			<path id="XMLID_00000010278882801722549300000000197411612778474906_" class="st1" d="M24.769,20.301
				c-0.025-2.751,2.252-4.089,2.357-4.152c-1.29-1.881-3.289-2.138-3.991-2.158c-1.679-0.176-3.307,1.005-4.163,1.005
				c-0.872,0-2.19-0.987-3.609-0.958c-1.826,0.028-3.536,1.086-4.473,2.728c-1.934,3.348-0.491,8.269,1.361,10.976
				c0.927,1.325,2.01,2.806,3.428,2.753c1.387-0.058,1.905-0.884,3.579-0.884c1.659,0,2.145,0.884,3.591,0.851
				c1.488-0.024,2.426-1.331,3.321-2.669c1.071-1.52,1.501-3.016,1.518-3.093C27.653,24.688,24.797,23.599,24.769,20.301z"/>
			<path id="XMLID_00000089567175728319381500000008830952258265489312_" class="st1" d="M22.037,12.211
				c0.746-0.933,1.256-2.202,1.115-3.491c-1.08,0.048-2.43,0.746-3.208,1.66c-0.688,0.804-1.302,2.122-1.144,3.361
				C20.013,13.831,21.259,13.129,22.037,12.211z"/>
		</g>
	</g>
	<g id="XMLID_00000009565215854823231760000001001820937849786030_">
		<g>
			<path class="st1" d="M38.943,18.078h2.083l4.509,12.418h-2.022l-1.136-3.356h-4.785l-1.145,3.356h-2.022L38.943,18.078z
				 M38.109,25.591h3.744l-1.851-5.456h-0.034L38.109,25.591z"/>
			<path class="st1" d="M46.677,21.442h1.859V23h0.043c0.542-1.075,1.541-1.729,2.832-1.729c2.306,0,3.787,1.808,3.787,4.699v0.008
				c0,2.884-1.489,4.699-3.761,4.699c-1.282,0-2.323-0.654-2.857-1.704h-0.043v4.535h-1.859V21.442z M53.304,25.977V25.97
				c0-1.928-0.921-3.107-2.375-3.107c-1.412,0-2.401,1.223-2.401,3.107v0.008c0,1.877,0.999,3.099,2.401,3.099
				C52.392,29.076,53.304,27.889,53.304,25.977z"/>
			<path class="st1" d="M56.631,21.442h1.859V23h0.043c0.542-1.075,1.541-1.729,2.832-1.729c2.306,0,3.787,1.808,3.787,4.699v0.008
				c0,2.884-1.489,4.699-3.761,4.699c-1.282,0-2.323-0.654-2.857-1.704H58.49v4.535h-1.859V21.442z M63.258,25.977V25.97
				c0-1.928-0.921-3.107-2.375-3.107c-1.412,0-2.401,1.223-2.401,3.107v0.008c0,1.877,0.999,3.099,2.401,3.099
				C62.346,29.076,63.258,27.889,63.258,25.977z"/>
			<path class="st1" d="M69.847,27.191l-0.008-0.129h1.876l0.017,0.111c0.172,1.145,1.317,1.859,2.978,1.859
				c1.661,0,2.711-0.749,2.711-1.91v-0.009c0-0.999-0.68-1.541-2.324-1.902l-1.351-0.284c-2.436-0.516-3.614-1.635-3.614-3.477
				v-0.009c0.008-2.117,1.876-3.571,4.501-3.571c2.59,0,4.363,1.411,4.492,3.494l0.008,0.146h-1.876l-0.008-0.121
				c-0.172-1.152-1.17-1.85-2.642-1.85c-1.541,0.008-2.521,0.74-2.521,1.824v0.009c0,0.929,0.706,1.497,2.254,1.833l1.36,0.284
				c2.564,0.542,3.666,1.583,3.666,3.502v0.009c0,2.264-1.79,3.701-4.733,3.701C71.843,30.703,70.001,29.377,69.847,27.191z"/>
			<path class="st1" d="M81.463,28.112v-5.189h-1.299v-1.48h1.299v-2.357h1.902v2.357h1.695v1.48h-1.695V28
				c0,0.921,0.413,1.196,1.196,1.196c0.198,0,0.361-0.017,0.499-0.034V30.6c-0.215,0.034-0.568,0.077-0.947,0.077
				C82.324,30.677,81.463,29.92,81.463,28.112z"/>
			<path class="st1" d="M86.081,25.97v-0.018c0-2.892,1.712-4.682,4.286-4.682c2.582,0,4.303,1.781,4.303,4.682v0.018
				c0,2.917-1.704,4.707-4.294,4.707C87.776,30.677,86.081,28.878,86.081,25.97z M92.767,25.97v-0.018
				c0-1.979-0.947-3.124-2.401-3.124c-1.429,0-2.384,1.145-2.384,3.124v0.018c0,2.005,0.946,3.149,2.401,3.149
				S92.767,27.966,92.767,25.97z"/>
			<path class="st1" d="M96.192,21.442h1.859v1.55h0.043c0.292-1.059,1.05-1.722,2.083-1.722c0.267,0,0.499,0.043,0.646,0.069v1.729
				c-0.146-0.061-0.473-0.104-0.835-0.104c-1.196,0-1.936,0.783-1.936,2.135v5.396h-1.859V21.442z"/>
			<path class="st1" d="M101.216,26.004v-0.009c0-2.831,1.635-4.725,4.174-4.725c2.539,0,4.096,1.824,4.096,4.544v0.628h-6.411
				c0.034,1.713,0.972,2.711,2.453,2.711c1.102,0,1.833-0.567,2.065-1.248l0.026-0.068h1.764l-0.018,0.095
				c-0.292,1.438-1.687,2.745-3.881,2.745C102.826,30.677,101.216,28.861,101.216,26.004z M103.101,25.126h4.544
				c-0.155-1.566-1.033-2.332-2.246-2.332C104.194,22.794,103.265,23.611,103.101,25.126z"/>
			<path class="st1" d="M110.878,27.311v-5.869h1.859v5.508c0,1.368,0.637,2.126,1.928,2.126c1.308,0,2.151-0.938,2.151-2.35v-5.284
				h1.868v9.054h-1.868v-1.359h-0.043c-0.473,0.912-1.394,1.54-2.771,1.54C112.014,30.677,110.878,29.394,110.878,27.311z"/>
		</g>
	</g>
	<g>
		<path class="st1" d="M35.667,8.709H38c1.174,0,1.988,0.789,1.988,1.963v0.009c0,1.17-0.813,1.972-1.988,1.972h-1.403v2.046h-0.93
			V8.709z M36.597,9.493v2.379h1.171c0.805,0,1.274-0.437,1.274-1.188v-0.008c0-0.747-0.469-1.184-1.274-1.184H36.597z"/>
		<path class="st1" d="M41.19,10.19h0.901v0.681h0.066c0.162-0.477,0.581-0.759,1.183-0.759c0.146,0,0.303,0.021,0.395,0.041v0.83
			c-0.162-0.033-0.315-0.054-0.486-0.054c-0.689,0-1.158,0.423-1.158,1.075v2.693H41.19V10.19z"/>
		<path class="st1" d="M44.364,12.457v-0.004c0-1.407,0.813-2.35,2.071-2.35c1.257,0,2.029,0.909,2.029,2.262v0.315h-3.196
			c0.017,0.863,0.49,1.366,1.233,1.366c0.577,0,0.921-0.287,1.029-0.52l0.017-0.033l0.867-0.004l-0.008,0.037
			c-0.149,0.594-0.772,1.258-1.926,1.258C45.161,14.785,44.364,13.885,44.364,12.457z M45.281,12.038h2.291
			c-0.07-0.806-0.522-1.195-1.133-1.195C45.825,10.843,45.36,11.262,45.281,12.038z"/>
		<path class="st1" d="M49.604,13.108V10.19h0.9v2.706c0,0.747,0.274,1.117,0.934,1.117c0.722,0,1.108-0.453,1.108-1.179V10.19
			h0.896v4.508h-0.896v-0.681h-0.07c-0.216,0.485-0.672,0.768-1.328,0.768C50.131,14.785,49.604,14.175,49.604,13.108z"/>
		<path class="st1" d="M54.745,14.113l2.49-3.143V10.9h-2.474v-0.71h3.536v0.619l-2.436,3.108v0.07h2.461v0.71h-3.578V14.113z"/>
		<path class="st1" d="M59.624,10.19h0.9v0.693h0.066c0.199-0.494,0.64-0.78,1.229-0.78c0.614,0,1.05,0.319,1.25,0.806h0.071
			c0.228-0.486,0.747-0.806,1.374-0.806c0.909,0,1.44,0.548,1.44,1.486v3.108h-0.896v-2.893c0-0.623-0.282-0.93-0.871-0.93
			c-0.573,0-0.951,0.427-0.951,0.971v2.852h-0.896v-2.984c0-0.515-0.336-0.838-0.868-0.838c-0.543,0-0.946,0.465-0.946,1.054v2.769
			h-0.9V10.19z"/>
		<path class="st1" d="M67.226,8.825c0-0.312,0.253-0.564,0.564-0.564c0.308,0,0.564,0.253,0.564,0.564
			c0,0.308-0.257,0.561-0.564,0.561C67.479,9.386,67.226,9.133,67.226,8.825z M67.338,10.19h0.896v4.508h-0.896V10.19z"/>
		<path class="st1" d="M72.046,13.108V10.19h0.901v2.706c0,0.747,0.273,1.117,0.934,1.117c0.722,0,1.108-0.453,1.108-1.179V10.19
			h0.896v4.508h-0.896v-0.681h-0.071c-0.216,0.485-0.672,0.768-1.328,0.768C72.573,14.785,72.046,14.175,72.046,13.108z"/>
	</g>
</g>
</svg>
