<?xml version="1.0" encoding="utf-8"?>
<!-- Generator: Adobe Illustrator 27.9.0, SVG Export Plug-In . SVG Version: 6.00 Build 0)  -->
<svg version="1.1" id="livetype" xmlns="http://www.w3.org/2000/svg" xmlns:xlink="http://www.w3.org/1999/xlink" x="0px" y="0px"
	 width="151.722px" height="41px" viewBox="0 0 151.722 41" style="enable-background:new 0 0 151.722 41;" xml:space="preserve">
<style type="text/css">
	.st0{fill:#A6A6A6;}
	.st1{fill:#FFFFFF;}
</style>
<g>
	<path class="st0" d="M141.192,0H9.535C9.168,0,8.806,0,8.44,0.002C8.134,0.004,7.83,0.01,7.521,0.015
		C6.855,0.031,6.182,0.072,5.517,0.191C4.848,0.309,4.226,0.509,3.616,0.818C3.018,1.125,2.471,1.523,1.998,1.997
		C1.519,2.471,1.123,3.02,0.819,3.618C0.508,4.227,0.311,4.852,0.194,5.521C0.074,6.184,0.032,6.854,0.015,7.523
		C0.006,7.83,0.005,8.138,0,8.444C0,8.807,0,9.17,0,9.536v20.929c0,0.369,0,0.73,0,1.094c0.005,0.311,0.006,0.611,0.015,0.922
		c0.017,0.67,0.059,1.34,0.179,2.002c0.117,0.67,0.314,1.298,0.625,1.904c0.303,0.596,0.7,1.145,1.178,1.614
		c0.473,0.478,1.02,0.875,1.619,1.179c0.609,0.312,1.231,0.51,1.901,0.631c0.665,0.119,1.338,0.158,2.004,0.177
		c0.309,0.007,0.613,0.011,0.919,0.011C8.806,40,9.168,40,9.535,40h131.658c0.359,0,0.725,0,1.084-0.002
		c0.305,0,0.617-0.004,0.922-0.011c0.67-0.019,1.342-0.058,2-0.177c0.67-0.121,1.293-0.318,1.908-0.631
		c0.598-0.304,1.145-0.701,1.617-1.179c0.477-0.47,0.873-1.019,1.182-1.614c0.307-0.606,0.506-1.234,0.619-1.904
		c0.123-0.662,0.162-1.332,0.186-2.002c0.004-0.311,0.004-0.611,0.004-0.922c0.008-0.363,0.008-0.725,0.008-1.094V9.536
		c0-0.366,0-0.729-0.008-1.092c0-0.307,0-0.614-0.004-0.921c-0.023-0.67-0.062-1.34-0.186-2.002
		c-0.113-0.67-0.312-1.295-0.619-1.903c-0.309-0.599-0.705-1.147-1.182-1.621c-0.473-0.474-1.02-0.872-1.617-1.179
		c-0.615-0.31-1.238-0.51-1.908-0.627c-0.658-0.119-1.33-0.16-2-0.177c-0.305-0.005-0.617-0.011-0.922-0.013
		C141.917,0,141.552,0,141.192,0L141.192,0z"/>
	<g>
		<g>
			<g>
				<g>
					<g>
						<g>
							<path d="M8.445,39.125c-0.305,0-0.602-0.004-0.904-0.011c-0.559-0.016-1.222-0.047-1.869-0.163
								c-0.61-0.11-1.153-0.29-1.657-0.548c-0.521-0.265-0.99-0.606-1.397-1.017c-0.414-0.406-0.754-0.873-1.021-1.396
								c-0.259-0.505-0.437-1.047-0.543-1.657c-0.122-0.673-0.153-1.355-0.166-1.875c-0.006-0.211-0.015-0.913-0.015-0.913V8.444
								c0,0,0.009-0.691,0.015-0.895c0.013-0.524,0.044-1.206,0.166-1.872C1.16,5.064,1.337,4.522,1.597,4.016
								c0.266-0.524,0.606-0.994,1.015-1.398c0.414-0.414,0.884-0.757,1.402-1.022c0.514-0.261,1.055-0.439,1.653-0.544
								C6.341,0.931,7.023,0.9,7.543,0.887l0.902-0.012h133.826l0.913,0.013c0.513,0.013,1.195,0.043,1.858,0.163
								c0.602,0.105,1.147,0.285,1.671,0.548c0.513,0.263,0.982,0.605,1.392,1.016c0.409,0.406,0.752,0.878,1.023,1.404
								c0.258,0.511,0.434,1.053,0.535,1.649c0.116,0.631,0.152,1.279,0.174,1.887c0.003,0.283,0.003,0.587,0.003,0.89
								c0.008,0.375,0.008,0.732,0.008,1.092v20.929c0,0.363,0,0.718-0.008,1.075c0,0.325,0,0.623-0.004,0.93
								c-0.021,0.589-0.057,1.236-0.171,1.854c-0.104,0.613-0.279,1.155-0.54,1.67c-0.27,0.52-0.612,0.989-1.016,1.386
								c-0.413,0.418-0.882,0.759-1.399,1.023c-0.519,0.264-1.048,0.438-1.668,0.55c-0.641,0.116-1.304,0.147-1.869,0.163
								c-0.293,0.007-0.6,0.011-0.897,0.011l-1.084,0.002L8.445,39.125z"/>
						</g>
					</g>
				</g>
			</g>
		</g>
		<g>
			<g>
				<g id="XMLID_20_">
					<g id="XMLID_22_">
						<g id="XMLID_23_">
							<path id="XMLID_25_" class="st1" d="M24.772,20.301c-0.025-2.751,2.252-4.089,2.357-4.152
								c-1.29-1.881-3.289-2.138-3.991-2.158c-1.679-0.176-3.307,1.005-4.163,1.005c-0.872,0-2.19-0.987-3.609-0.958
								c-1.826,0.028-3.536,1.086-4.473,2.728c-1.934,3.348-0.491,8.269,1.361,10.976c0.927,1.325,2.01,2.806,3.428,2.753
								c1.387-0.058,1.905-0.884,3.579-0.884c1.659,0,2.145,0.884,3.591,0.851c1.488-0.024,2.426-1.331,3.321-2.669
								c1.071-1.52,1.501-3.016,1.518-3.093C27.656,24.688,24.8,23.599,24.772,20.301z"/>
							<path id="XMLID_24_" class="st1" d="M22.04,12.211c0.746-0.933,1.256-2.202,1.115-3.491c-1.08,0.048-2.43,0.746-3.208,1.66
								c-0.688,0.804-1.302,2.122-1.144,3.361C20.016,13.831,21.262,13.129,22.04,12.211z"/>
						</g>
					</g>
				</g>
			</g>
			<g id="XMLID_1_">
				<g>
					<path class="st1" d="M39.396,14.702h-3.722V8.735h0.927v5.115h2.795V14.702z"/>
					<path class="st1" d="M44.189,13.486c-0.202,0.807-0.922,1.303-1.951,1.303c-1.29,0-2.08-0.885-2.08-2.324
						c0-1.439,0.807-2.353,2.076-2.353c1.253,0,2.009,0.856,2.009,2.27v0.31h-3.18v0.05c0.029,0.79,0.488,1.29,1.199,1.29
						c0.538,0,0.906-0.194,1.071-0.546H44.189z M41.063,12.035h2.274c-0.021-0.707-0.45-1.167-1.108-1.167
						C41.572,10.868,41.113,11.332,41.063,12.035z"/>
					<path class="st1" d="M46.64,9.078v1.142h0.976v0.749H46.64v2.315c0,0.472,0.194,0.678,0.637,0.678
						c0.137,0,0.215-0.008,0.339-0.021v0.74c-0.145,0.024-0.31,0.045-0.483,0.045c-0.988,0-1.382-0.348-1.382-1.216v-2.543h-0.715
						v-0.749h0.715V9.078H46.64z"/>
					<path class="st1" d="M48.516,12.448c0-1.452,0.811-2.336,2.125-2.336c1.312,0,2.122,0.885,2.122,2.336
						c0,1.459-0.807,2.34-2.122,2.34C49.322,14.789,48.516,13.908,48.516,12.448z M49.206,9.028c0-0.314,0.24-0.558,0.554-0.558
						c0.311,0,0.551,0.244,0.551,0.558c0,0.314-0.24,0.554-0.551,0.554C49.446,9.583,49.206,9.342,49.206,9.028z M51.849,12.448
						c0-0.976-0.438-1.547-1.208-1.547c-0.772,0-1.207,0.571-1.207,1.547c0,0.984,0.435,1.55,1.207,1.55
						C51.41,13.999,51.849,13.428,51.849,12.448z M50.972,9.028c0-0.314,0.244-0.558,0.555-0.558c0.31,0,0.55,0.244,0.55,0.558
						c0,0.314-0.24,0.554-0.55,0.554C51.216,9.583,50.972,9.342,50.972,9.028z"/>
					<path class="st1" d="M53.996,8.441h0.889v6.261h-0.889V8.441z"/>
					<path class="st1" d="M57.547,9.078v1.142h0.976v0.749h-0.976v2.315c0,0.472,0.194,0.678,0.637,0.678
						c0.137,0,0.215-0.008,0.339-0.021v0.74c-0.145,0.024-0.311,0.045-0.483,0.045c-0.988,0-1.382-0.348-1.382-1.216v-2.543h-0.715
						v-0.749h0.715V9.078H57.547z"/>
					<path class="st1" d="M59.736,8.441h0.881v2.481h0.07c0.219-0.505,0.694-0.807,1.373-0.807c0.959,0,1.551,0.608,1.551,1.679
						v2.907h-0.89v-2.688c0-0.719-0.335-1.083-0.963-1.083c-0.729,0-1.134,0.459-1.134,1.142v2.63h-0.889V8.441z"/>
					<path class="st1" d="M68.793,13.486c-0.202,0.807-0.922,1.303-1.951,1.303c-1.29,0-2.081-0.885-2.081-2.324
						c0-1.439,0.807-2.353,2.077-2.353c1.253,0,2.009,0.856,2.009,2.27v0.31h-3.18v0.05c0.029,0.79,0.488,1.29,1.199,1.29
						c0.538,0,0.906-0.194,1.071-0.546H68.793z M65.667,12.035h2.274c-0.021-0.707-0.45-1.167-1.108-1.167
						C66.176,10.868,65.717,11.332,65.667,12.035z"/>
					<path class="st1" d="M71.244,9.078v1.142h0.976v0.749h-0.976v2.315c0,0.472,0.194,0.678,0.637,0.678
						c0.137,0,0.215-0.008,0.339-0.021v0.74c-0.145,0.024-0.31,0.045-0.483,0.045c-0.988,0-1.382-0.348-1.382-1.216v-2.543h-0.715
						v-0.749h0.715V9.078H71.244z"/>
					<path class="st1" d="M73.119,12.448c0-1.452,0.811-2.336,2.125-2.336c1.312,0,2.122,0.885,2.122,2.336
						c0,1.459-0.807,2.34-2.122,2.34C73.925,14.789,73.119,13.908,73.119,12.448z M74.806,8.023h0.942l-1.104,1.422h-0.822
						L74.806,8.023z M76.452,12.448c0-0.976-0.438-1.547-1.208-1.547c-0.772,0-1.207,0.571-1.207,1.547
						c0,0.984,0.435,1.55,1.207,1.55C76.013,13.999,76.452,13.428,76.452,12.448z M76.513,8.023h0.943l-1.104,1.422H75.53
						L76.513,8.023z"/>
					<path class="st1" d="M80.745,13.428c0-0.811,0.604-1.278,1.675-1.344l1.22-0.07v-0.389c0-0.476-0.314-0.744-0.922-0.744
						c-0.496,0-0.84,0.182-0.938,0.5h-0.86c0.091-0.773,0.818-1.27,1.84-1.27c1.129,0,1.766,0.562,1.766,1.513v3.077h-0.855v-0.633
						h-0.07c-0.269,0.451-0.761,0.707-1.353,0.707C81.377,14.776,80.745,14.251,80.745,13.428z M83.639,13.043v-0.376l-1.1,0.07
						c-0.62,0.042-0.901,0.252-0.901,0.649c0,0.405,0.352,0.641,0.835,0.641C83.143,14.028,83.639,13.602,83.639,13.043z"/>
					<path class="st1" d="M85.812,14.098l2.477-3.077v-0.07h-2.46v-0.752h3.522v0.649l-2.423,3.031v0.07h2.448v0.752h-3.564V14.098z
						"/>
				</g>
			</g>
		</g>
		<g>
			<path class="st1" d="M42.308,27.129h-4.733l-1.137,3.356h-2.005l4.483-12.418h2.083l4.483,12.418h-2.039L42.308,27.129z
				 M38.064,25.58h3.752l-1.85-5.448h-0.052L38.064,25.58z"/>
			<path class="st1" d="M55.165,25.959c0,2.813-1.506,4.621-3.778,4.621c-1.29,0-2.314-0.577-2.849-1.584h-0.043v4.484h-1.858
				V21.431h1.799v1.506h0.034c0.517-0.972,1.618-1.601,2.883-1.601C53.65,21.336,55.165,23.153,55.165,25.959z M53.255,25.959
				c0-1.833-0.947-3.039-2.393-3.039c-1.42,0-2.375,1.23-2.375,3.039c0,1.824,0.955,3.046,2.375,3.046
				C52.308,29.005,53.255,27.809,53.255,25.959z"/>
			<path class="st1" d="M65.129,25.959c0,2.813-1.505,4.621-3.778,4.621c-1.29,0-2.314-0.577-2.849-1.584H58.46v4.484h-1.858V21.431
				H58.4v1.506h0.034c0.517-0.972,1.618-1.601,2.883-1.601C63.615,21.336,65.129,23.153,65.129,25.959z M63.22,25.959
				c0-1.833-0.947-3.039-2.393-3.039c-1.42,0-2.375,1.23-2.375,3.039c0,1.824,0.955,3.046,2.375,3.046
				C62.272,29.005,63.22,27.809,63.22,25.959z"/>
			<path class="st1" d="M71.714,27.025c0.138,1.231,1.334,2.04,2.969,2.04c1.566,0,2.693-0.809,2.693-1.919
				c0-0.964-0.68-1.541-2.289-1.937l-1.609-0.388c-2.28-0.551-3.339-1.617-3.339-3.348c0-2.143,1.867-3.614,4.518-3.614
				c2.625,0,4.424,1.472,4.484,3.614h-1.876c-0.112-1.239-1.137-1.987-2.634-1.987s-2.521,0.757-2.521,1.858
				c0,0.878,0.654,1.395,2.255,1.79l1.368,0.336c2.548,0.603,3.605,1.626,3.605,3.443c0,2.323-1.85,3.778-4.793,3.778
				c-2.754,0-4.613-1.421-4.733-3.667H71.714z"/>
			<path class="st1" d="M83.351,19.289v2.143h1.722v1.472h-1.722v4.992c0,0.775,0.345,1.137,1.102,1.137
				c0.189,0,0.491-0.026,0.611-0.043v1.463c-0.206,0.052-0.619,0.086-1.032,0.086c-1.833,0-2.548-0.688-2.548-2.444v-5.19h-1.316
				v-1.472h1.316v-2.143H83.351z"/>
			<path class="st1" d="M86.069,25.959c0-2.849,1.678-4.639,4.294-4.639c2.625,0,4.295,1.79,4.295,4.639
				c0,2.856-1.661,4.639-4.295,4.639C87.73,30.598,86.069,28.815,86.069,25.959z M92.764,25.959c0-1.955-0.896-3.108-2.401-3.108
				s-2.401,1.162-2.401,3.108c0,1.962,0.896,3.106,2.401,3.106S92.764,27.921,92.764,25.959z"/>
			<path class="st1" d="M96.19,21.431h1.772v1.541h0.043c0.284-1.024,1.11-1.636,2.178-1.636c0.267,0,0.49,0.035,0.637,0.069v1.738
				c-0.146-0.061-0.474-0.112-0.835-0.112c-1.196,0-1.937,0.81-1.937,2.083v5.37H96.19V21.431z"/>
			<path class="st1" d="M109.388,27.826c-0.25,1.644-1.851,2.771-3.898,2.771c-2.634,0-4.269-1.765-4.269-4.596
				c0-2.84,1.644-4.682,4.19-4.682c2.505,0,4.08,1.721,4.08,4.466v0.637h-6.395v0.112c0,1.549,0.973,2.564,2.436,2.564
				c1.032,0,1.842-0.49,2.091-1.273H109.388z M103.106,25.124h4.526c-0.043-1.386-0.93-2.298-2.221-2.298
				C104.129,22.826,103.201,23.755,103.106,25.124z"/>
			<path class="st1" d="M111.101,26.286v-1.679h5.646v1.679H111.101z"/>
			<path class="st1" d="M120.67,28.945h-0.034v1.54h-1.808V18.067h1.859v4.87h0.043c0.542-1.015,1.575-1.601,2.857-1.601
				c2.28,0,3.77,1.816,3.77,4.623c0,2.813-1.489,4.621-3.778,4.621C122.254,30.58,121.23,29.995,120.67,28.945z M120.679,25.959
				c0,1.824,0.964,3.046,2.401,3.046c1.429,0,2.366-1.188,2.366-3.046c0-1.842-0.938-3.039-2.366-3.039
				S120.679,24.151,120.679,25.959z"/>
			<path class="st1" d="M128.495,25.959c0-2.849,1.678-4.639,4.294-4.639c2.625,0,4.295,1.79,4.295,4.639
				c0,2.856-1.661,4.639-4.295,4.639C130.156,30.598,128.495,28.815,128.495,25.959z M135.19,25.959
				c0-1.955-0.896-3.108-2.401-3.108s-2.401,1.162-2.401,3.108c0,1.962,0.896,3.106,2.401,3.106S135.19,27.921,135.19,25.959z
				 M132.014,20.14l1.842-2.607h1.867l-2.151,2.607H132.014z"/>
			<path class="st1" d="M138.684,18.067h1.859v12.418h-1.859V18.067z"/>
		</g>
	</g>
</g>
</svg>
