<?xml version="1.0" encoding="utf-8"?>
<!-- Generator: Adobe Illustrator 28.2.0, SVG Export Plug-In . SVG Version: 6.00 Build 0)  -->
<svg version="1.1" id="Artwork" xmlns="http://www.w3.org/2000/svg" xmlns:xlink="http://www.w3.org/1999/xlink" x="0px" y="0px"
	 width="109.852px" height="41px" viewBox="0 0 109.852 41" style="enable-background:new 0 0 109.852 41;" xml:space="preserve">
<style type="text/css">
	.st0{fill:#A6A6A6;}
	.st1{fill:#FFFFFF;}
</style>
<g>
	<g>
		<g>
			<g>
				<path class="st0" d="M99.322,0H9.535C9.168,0,8.806,0,8.44,0.002C8.134,0.004,7.83,0.01,7.521,0.015
					C6.855,0.031,6.182,0.072,5.517,0.191C4.848,0.309,4.226,0.509,3.616,0.818C3.018,1.125,2.471,1.523,1.998,1.997
					C1.519,2.471,1.123,3.02,0.819,3.618C0.508,4.227,0.311,4.852,0.194,5.521C0.074,6.184,0.032,6.854,0.015,7.523
					C0.006,7.83,0.005,8.138,0,8.444C0,8.807,0,9.17,0,9.536v20.929c0,0.369,0,0.73,0,1.094c0.005,0.311,0.006,0.611,0.015,0.922
					c0.017,0.67,0.059,1.34,0.179,2.002c0.117,0.67,0.314,1.298,0.625,1.904c0.303,0.596,0.7,1.145,1.178,1.614
					c0.473,0.478,1.02,0.875,1.619,1.179c0.609,0.312,1.231,0.51,1.901,0.631c0.665,0.119,1.338,0.158,2.004,0.177
					c0.309,0.007,0.613,0.011,0.919,0.011C8.806,40,9.168,40,9.535,40h89.788c0.359,0,0.725,0,1.084-0.002
					c0.305,0,0.617-0.004,0.922-0.011c0.67-0.019,1.342-0.058,2-0.177c0.67-0.121,1.293-0.318,1.908-0.631
					c0.598-0.304,1.145-0.701,1.617-1.179c0.477-0.47,0.873-1.019,1.182-1.614c0.307-0.606,0.506-1.234,0.619-1.904
					c0.123-0.662,0.162-1.332,0.186-2.002c0.004-0.311,0.004-0.611,0.004-0.922c0.008-0.363,0.008-0.725,0.008-1.094V9.536
					c0-0.366,0-0.729-0.008-1.092c0-0.307,0-0.614-0.004-0.921c-0.023-0.67-0.062-1.34-0.186-2.002
					c-0.113-0.67-0.312-1.295-0.619-1.903c-0.309-0.599-0.705-1.147-1.182-1.621c-0.473-0.474-1.02-0.872-1.617-1.179
					c-0.615-0.31-1.238-0.51-1.908-0.627c-0.658-0.119-1.33-0.16-2-0.177c-0.305-0.005-0.617-0.011-0.922-0.013
					C100.047,0,99.682,0,99.322,0L99.322,0z"/>
				<path d="M8.445,39.125c-0.305,0-0.602-0.004-0.904-0.011c-0.559-0.016-1.222-0.047-1.869-0.163
					c-0.61-0.11-1.153-0.29-1.657-0.548c-0.521-0.265-0.99-0.606-1.397-1.017c-0.414-0.406-0.754-0.873-1.021-1.396
					c-0.259-0.505-0.437-1.047-0.543-1.657c-0.122-0.673-0.153-1.355-0.166-1.875c-0.006-0.211-0.015-0.913-0.015-0.913V8.444
					c0,0,0.009-0.691,0.015-0.895c0.013-0.524,0.044-1.206,0.166-1.872C1.16,5.064,1.337,4.522,1.597,4.016
					c0.266-0.524,0.606-0.994,1.015-1.398c0.414-0.414,0.884-0.757,1.402-1.022c0.514-0.261,1.055-0.439,1.653-0.544
					C6.341,0.931,7.023,0.9,7.543,0.887l0.902-0.012h91.956l0.913,0.013c0.513,0.013,1.195,0.043,1.858,0.163
					c0.603,0.105,1.147,0.285,1.671,0.548c0.513,0.263,0.982,0.605,1.392,1.016c0.409,0.406,0.752,0.878,1.023,1.404
					c0.258,0.511,0.434,1.053,0.535,1.649c0.116,0.631,0.152,1.279,0.174,1.887c0.003,0.283,0.003,0.587,0.003,0.89
					c0.008,0.375,0.008,0.732,0.008,1.092v20.929c0,0.363,0,0.718-0.008,1.075c0,0.325,0,0.623-0.004,0.93
					c-0.021,0.589-0.057,1.236-0.171,1.854c-0.104,0.613-0.279,1.155-0.54,1.67c-0.27,0.52-0.612,0.989-1.016,1.386
					c-0.413,0.418-0.882,0.759-1.399,1.023c-0.519,0.264-1.048,0.438-1.668,0.55c-0.641,0.116-1.304,0.147-1.869,0.163
					c-0.293,0.007-0.6,0.011-0.897,0.011l-1.084,0.002L8.445,39.125z"/>
			</g>
		</g>
	</g>
	<g>
		<path class="st1" d="M41.167,16.555h-4.052l-0.973,2.873h-1.716l3.838-10.629h1.783l3.838,10.629H42.14L41.167,16.555z
			 M37.535,15.229h3.212l-1.583-4.663h-0.044L37.535,15.229z"/>
		<path class="st1" d="M52.173,15.553c0,2.408-1.289,3.955-3.234,3.955c-1.104,0-1.981-0.494-2.438-1.356h-0.037v3.838h-1.591
			V11.678h1.54v1.289h0.029c0.442-0.832,1.385-1.37,2.468-1.37C50.876,11.597,52.173,13.152,52.173,15.553z M50.538,15.553
			c0-1.569-0.811-2.6-2.048-2.6c-1.215,0-2.033,1.053-2.033,2.6c0,1.561,0.818,2.607,2.033,2.607
			C49.727,18.16,50.538,17.136,50.538,15.553z"/>
		<path class="st1" d="M60.703,15.553c0,2.408-1.289,3.955-3.234,3.955c-1.104,0-1.981-0.494-2.438-1.356h-0.037v3.838h-1.591
			V11.678h1.54v1.289h0.029c0.442-0.832,1.385-1.37,2.468-1.37C59.406,11.597,60.703,13.152,60.703,15.553z M59.067,15.553
			c0-1.569-0.811-2.6-2.048-2.6c-1.215,0-2.033,1.053-2.033,2.6c0,1.561,0.818,2.607,2.033,2.607
			C58.256,18.16,59.067,17.136,59.067,15.553z"/>
		<path class="st1" d="M66.339,16.466c0.118,1.054,1.142,1.746,2.541,1.746c1.341,0,2.305-0.692,2.305-1.643
			c0-0.825-0.582-1.319-1.959-1.658l-1.378-0.332c-1.952-0.471-2.858-1.384-2.858-2.865c0-1.834,1.598-3.094,3.867-3.094
			c2.247,0,3.787,1.26,3.838,3.094H71.09c-0.096-1.061-0.973-1.701-2.254-1.701s-2.158,0.648-2.158,1.591
			c0,0.751,0.56,1.194,1.93,1.532l1.171,0.288c2.181,0.516,3.086,1.392,3.086,2.947c0,1.989-1.583,3.234-4.103,3.234
			c-2.357,0-3.949-1.216-4.052-3.139H66.339z"/>
		<path class="st1" d="M76.3,9.844v1.834h1.474v1.26H76.3v4.272c0,0.664,0.295,0.973,0.943,0.973c0.162,0,0.42-0.023,0.523-0.037
			v1.252c-0.176,0.044-0.53,0.074-0.884,0.074c-1.569,0-2.181-0.589-2.181-2.092v-4.442h-1.127v-1.26h1.127V9.844H76.3z"/>
		<path class="st1" d="M78.626,15.553c0-2.438,1.436-3.97,3.675-3.97c2.247,0,3.676,1.532,3.676,3.97c0,2.445-1.422,3.97-3.676,3.97
			C80.048,19.524,78.626,17.998,78.626,15.553z M84.357,15.553c0-1.673-0.767-2.66-2.055-2.66c-1.289,0-2.055,0.995-2.055,2.66
			c0,1.679,0.767,2.659,2.055,2.659C83.59,18.212,84.357,17.233,84.357,15.553z"/>
		<path class="st1" d="M87.289,11.678h1.517v1.319h0.037c0.243-0.877,0.95-1.4,1.864-1.4c0.228,0,0.42,0.03,0.545,0.059v1.488
			c-0.125-0.052-0.405-0.096-0.715-0.096c-1.024,0-1.658,0.693-1.658,1.783v4.597h-1.591V11.678z"/>
		<path class="st1" d="M98.586,17.151c-0.214,1.407-1.584,2.372-3.337,2.372c-2.254,0-3.654-1.51-3.654-3.934
			c0-2.431,1.407-4.007,3.587-4.007c2.144,0,3.492,1.473,3.492,3.823v0.545h-5.473v0.096c0,1.326,0.833,2.195,2.085,2.195
			c0.884,0,1.576-0.42,1.79-1.09H98.586z M93.209,14.839h3.874c-0.037-1.186-0.796-1.967-1.901-1.967
			C94.085,12.872,93.29,13.667,93.209,14.839z"/>
	</g>
	<g id="XMLID_00000178172123457976977130000004172030096472213919_">
		<g id="XMLID_00000173125009157190615580000018430946654689014172_">
			<path id="XMLID_00000173873035572058675810000000146472102372943760_" class="st1" d="M24.769,20.301
				c-0.025-2.751,2.252-4.089,2.357-4.152c-1.29-1.881-3.289-2.138-3.991-2.158c-1.679-0.176-3.307,1.005-4.163,1.005
				c-0.872,0-2.19-0.987-3.609-0.958c-1.826,0.028-3.536,1.086-4.473,2.728c-1.934,3.348-0.491,8.269,1.361,10.976
				c0.927,1.325,2.01,2.806,3.428,2.753c1.387-0.058,1.905-0.884,3.579-0.884c1.659,0,2.145,0.884,3.591,0.851
				c1.488-0.024,2.426-1.331,3.321-2.669c1.071-1.52,1.501-3.016,1.518-3.093C27.653,24.688,24.797,23.599,24.769,20.301z"/>
			<path id="XMLID_00000163050482188153306060000013156196842615497365_" class="st1" d="M22.037,12.211
				c0.746-0.933,1.256-2.202,1.115-3.491c-1.08,0.048-2.43,0.746-3.208,1.66c-0.688,0.804-1.302,2.122-1.144,3.361
				C20.013,13.831,21.259,13.129,22.037,12.211z"/>
		</g>
	</g>
	<g>
		<g>
			<path class="st1" d="M38.235,28.27c-0.12,0.169-0.288,0.303-0.504,0.401c-0.217,0.098-0.463,0.147-0.74,0.147
				c-0.473,0-0.853-0.141-1.141-0.423c-0.289-0.282-0.434-0.675-0.434-1.179v-2.031h-0.99v-0.723h5.839v0.723H39.17v5.406h-0.897
				V28.27H38.235z M38.272,25.185h-1.962v1.934c0,0.329,0.074,0.563,0.224,0.705c0.148,0.141,0.357,0.211,0.628,0.211
				c0.351,0,0.622-0.12,0.817-0.359c0.195-0.24,0.293-0.551,0.293-0.935V25.185z"/>
			<path class="st1" d="M41.702,28.063c0.102,0.114,0.205,0.23,0.309,0.35c0.104,0.12,0.229,0.27,0.373,0.451l1.036,1.321
				l-0.723,0.46l-2.528-3.242l0.668-0.529c0.107,0.132,0.226,0.246,0.354,0.341s0.29,0.143,0.483,0.143
				c0.184,0,0.323-0.044,0.416-0.133c0.094-0.089,0.141-0.236,0.141-0.442v-1.598H39.81v-0.723h4.356v0.723H43.12v1.653
				c0,0.408-0.115,0.708-0.345,0.9c-0.23,0.192-0.502,0.297-0.815,0.315c-0.024,0-0.063-0.001-0.117-0.004
				c-0.054-0.003-0.096-0.008-0.127-0.014L41.702,28.063z"/>
			<path class="st1" d="M51.947,25.185h-1.22v1.547h-1.713c-0.276,0-0.461,0.04-0.553,0.12c-0.092,0.08-0.139,0.192-0.139,0.336
				c0,0.132,0.051,0.266,0.152,0.401c0.102,0.135,0.233,0.227,0.396,0.276l1.557-0.332c0.232,0.095,0.428,0.263,0.584,0.502
				c0.156,0.24,0.234,0.519,0.234,0.838c0,0.31-0.08,0.59-0.238,0.84c-0.16,0.25-0.385,0.45-0.676,0.598
				c-0.289,0.149-0.633,0.224-1.028,0.224c-0.409,0-0.772-0.078-1.094-0.232c-0.321-0.155-0.596-0.358-0.824-0.608
				s-0.419-0.518-0.569-0.804l0.622-0.451c0.193,0.396,0.452,0.718,0.776,0.967c0.324,0.249,0.689,0.373,1.098,0.373
				c0.328,0,0.594-0.079,0.795-0.237s0.301-0.378,0.301-0.661c0-0.23-0.081-0.408-0.244-0.534l-1.418,0.317
				c-0.39-0.144-0.705-0.371-0.945-0.679c-0.242-0.308-0.362-0.638-0.362-0.987c0-0.298,0.098-0.539,0.292-0.723
				C47.927,26.092,48.206,26,48.567,26h1.295v-0.815h-3.574v-0.723h5.659V25.185z"/>
			<path class="st1" d="M53.472,25.185v5.406h-0.889v-5.406h-1.092v-0.723h3.086v0.723H53.472z"/>
			<path class="st1" d="M55.027,28.754c0.123,0.252,0.296,0.464,0.521,0.636s0.496,0.258,0.814,0.258
				c0.335,0,0.598-0.086,0.79-0.258s0.288-0.407,0.288-0.705c0-0.276-0.09-0.496-0.27-0.659c-0.18-0.163-0.458-0.244-0.836-0.244
				h-0.539V27h0.438c0.246,0,0.463-0.071,0.65-0.212c0.187-0.141,0.28-0.364,0.28-0.668c0-0.325-0.089-0.562-0.267-0.711
				c-0.179-0.149-0.453-0.224-0.824-0.224h-1.962v-0.723h5.023v0.723h-1.533v0.051c0.086,0.043,0.188,0.137,0.309,0.281
				c0.12,0.145,0.179,0.361,0.179,0.649c0,0.273-0.068,0.51-0.207,0.711c-0.138,0.201-0.323,0.341-0.557,0.421v0.046
				c0.282,0.064,0.525,0.215,0.73,0.451c0.203,0.236,0.306,0.533,0.306,0.889c0,0.334-0.078,0.635-0.235,0.902
				c-0.156,0.267-0.382,0.476-0.676,0.626c-0.295,0.15-0.654,0.226-1.078,0.226c-0.384,0-0.715-0.064-0.994-0.193
				s-0.51-0.288-0.689-0.477c-0.179-0.189-0.312-0.371-0.397-0.546L55.027,28.754z"/>
			<path class="st1" d="M59.862,28.685c-0.209-0.12-0.385-0.302-0.529-0.545c-0.145-0.244-0.217-0.534-0.217-0.868l0.641-0.479
				h2.348v-1.607h-3.421v-0.723h5.401v0.723h-1.092v5.406h-0.889v-3.016h-1.754v0.912L59.862,28.685z"/>
			<path class="st1" d="M68.888,26.507v-1.322h-5.254v-0.723h7.252v0.723H69.78v5.406h-0.893v-3.32
				c-0.059-0.055-0.15-0.111-0.271-0.168c-0.123-0.057-0.254-0.085-0.393-0.085c-0.217,0-0.391,0.074-0.52,0.221
				s-0.193,0.372-0.193,0.672v0.898h-0.844v-0.917c0-0.282-0.062-0.494-0.188-0.635c-0.127-0.141-0.299-0.212-0.516-0.212
				c-0.197,0-0.373,0.075-0.525,0.226c-0.154,0.15-0.23,0.408-0.23,0.773c0,0.39,0.113,0.761,0.338,1.112
				c0.227,0.351,0.578,0.656,1.057,0.914l-0.594,0.613c-0.328-0.169-0.621-0.387-0.877-0.654c-0.256-0.267-0.461-0.572-0.611-0.914
				c-0.152-0.342-0.229-0.708-0.229-1.098c0-0.39,0.078-0.715,0.232-0.977c0.154-0.261,0.354-0.456,0.594-0.584
				s0.494-0.193,0.758-0.193c0.303,0,0.557,0.066,0.758,0.198c0.201,0.132,0.34,0.312,0.42,0.539h0.037
				c0.064-0.258,0.191-0.452,0.381-0.581c0.188-0.129,0.393-0.193,0.613-0.193c0.164,0,0.314,0.027,0.451,0.081
				c0.139,0.054,0.242,0.121,0.309,0.201H68.888z"/>
			<path class="st1" d="M72.405,30.591h-0.889v-5.406h-1.092v-0.723h1.074c-0.158-0.126-0.326-0.272-0.51-0.44
				c-0.184-0.167-0.359-0.341-0.531-0.522s-0.328-0.349-0.465-0.502l-0.773-0.893l1.008-0.226l2.113,2.583h1.17v0.723h-1.105V30.591
				z"/>
			<path class="st1" d="M78.704,25.185h-1.221v1.547h-1.713c-0.275,0-0.459,0.04-0.553,0.12c-0.092,0.08-0.137,0.192-0.137,0.336
				c0,0.132,0.051,0.266,0.152,0.401c0.1,0.135,0.232,0.227,0.395,0.276l1.557-0.332c0.234,0.095,0.428,0.263,0.586,0.502
				c0.156,0.24,0.234,0.519,0.234,0.838c0,0.31-0.08,0.59-0.24,0.84c-0.16,0.25-0.385,0.45-0.674,0.598
				c-0.291,0.149-0.633,0.224-1.029,0.224c-0.408,0-0.773-0.078-1.094-0.232c-0.32-0.155-0.596-0.358-0.824-0.608
				s-0.418-0.518-0.568-0.804l0.621-0.451c0.193,0.396,0.453,0.718,0.775,0.967c0.324,0.249,0.691,0.373,1.1,0.373
				c0.328,0,0.592-0.079,0.793-0.237s0.303-0.378,0.303-0.661c0-0.23-0.082-0.408-0.244-0.534l-1.418,0.317
				c-0.391-0.144-0.705-0.371-0.947-0.679c-0.24-0.308-0.361-0.638-0.361-0.987c0-0.298,0.098-0.539,0.293-0.723
				S74.962,26,75.325,26h1.293v-0.815h-3.572v-0.723h5.658V25.185z"/>
			<path class="st1" d="M87.103,27.792c0-0.271-0.084-0.489-0.252-0.656c-0.166-0.167-0.385-0.251-0.656-0.251
				c-0.307,0-0.555,0.102-0.748,0.306c-0.191,0.204-0.287,0.467-0.287,0.79v2.611H84.28V28.98h-0.037
				c-0.086,0.107-0.223,0.215-0.412,0.324c-0.189,0.109-0.441,0.164-0.758,0.164c-0.295,0-0.568-0.069-0.82-0.207
				c-0.25-0.138-0.451-0.333-0.602-0.585c-0.15-0.251-0.227-0.543-0.227-0.875c0-0.402,0.098-0.735,0.293-0.999
				c0.195-0.264,0.449-0.458,0.764-0.58s0.645-0.163,0.988-0.12l0.143,0.792c-0.221-0.043-0.43-0.038-0.625,0.016
				c-0.193,0.054-0.352,0.154-0.473,0.301c-0.121,0.147-0.184,0.344-0.184,0.589c0,0.258,0.086,0.472,0.26,0.64
				c0.172,0.169,0.393,0.253,0.662,0.253c0.316,0,0.566-0.102,0.75-0.306c0.186-0.204,0.277-0.463,0.277-0.776v-2.427h-3.459v-0.723
				h7.801v0.723h-3.463v1.427h0.037c0.102-0.113,0.25-0.224,0.443-0.331c0.195-0.107,0.439-0.162,0.734-0.162
				s0.566,0.068,0.816,0.203c0.248,0.135,0.445,0.327,0.594,0.576c0.146,0.249,0.221,0.543,0.221,0.884
				c0,0.396-0.098,0.729-0.293,0.999s-0.445,0.465-0.752,0.585c-0.307,0.12-0.637,0.156-0.99,0.11l-0.143-0.792
				c0.221,0.04,0.428,0.035,0.623-0.016s0.354-0.15,0.473-0.297C87.042,28.224,87.103,28.031,87.103,27.792z"/>
			<path class="st1" d="M90.05,28.063c0.102,0.114,0.203,0.23,0.309,0.35c0.104,0.12,0.229,0.27,0.373,0.451l1.035,1.321
				l-0.723,0.46l-2.527-3.242l0.666-0.529c0.107,0.132,0.227,0.246,0.355,0.341s0.291,0.143,0.484,0.143
				c0.184,0,0.322-0.044,0.416-0.133c0.094-0.089,0.141-0.236,0.141-0.442v-1.598h-2.422v-0.723h4.355v0.723h-1.045v1.653
				c0,0.408-0.115,0.708-0.346,0.9s-0.502,0.297-0.814,0.315c-0.025,0-0.064-0.001-0.117-0.004
				c-0.055-0.003-0.098-0.008-0.127-0.014L90.05,28.063z"/>
			<path class="st1" d="M89.653,22.008l1.783,2.491l-0.715,0.064l-0.068-0.055c-0.117-0.107-0.258-0.246-0.422-0.415
				c-0.164-0.168-0.332-0.352-0.502-0.55c-0.17-0.198-0.328-0.392-0.473-0.583l-0.584-0.764L89.653,22.008z M91.278,22.851
				c0-0.184,0.061-0.337,0.178-0.46c0.119-0.123,0.264-0.184,0.436-0.184c0.182,0,0.33,0.062,0.447,0.184
				c0.115,0.123,0.174,0.276,0.174,0.46c0,0.163-0.059,0.302-0.174,0.419c-0.117,0.117-0.266,0.175-0.447,0.175
				c-0.172,0-0.316-0.059-0.436-0.175C91.339,23.153,91.278,23.013,91.278,22.851z"/>
		</g>
	</g>
</g>
</svg>
