<?xml version="1.0" encoding="utf-8"?>
<!-- Generator: Adobe Illustrator 28.2.0, SVG Export Plug-In . SVG Version: 6.00 Build 0)  -->
<svg version="1.1" id="Artwork" xmlns="http://www.w3.org/2000/svg" xmlns:xlink="http://www.w3.org/1999/xlink" x="0px" y="0px"
	 width="120.664px" height="41px" viewBox="0 0 120.664 41" style="enable-background:new 0 0 120.664 41;" xml:space="preserve">
<style type="text/css">
	.st0{fill:#A6A6A6;}
	.st1{fill:#FFFFFF;}
</style>
<g>
	<g>
		<g>
			<g>
				<path class="st0" d="M110.135,0H9.535C9.168,0,8.806,0,8.44,0.002C8.134,0.004,7.83,0.01,7.521,0.015
					C6.855,0.031,6.182,0.072,5.517,0.191C4.848,0.309,4.226,0.509,3.616,0.818C3.018,1.125,2.471,1.523,1.998,1.997
					C1.519,2.471,1.123,3.02,0.819,3.618C0.508,4.227,0.311,4.852,0.194,5.521C0.074,6.184,0.032,6.854,0.015,7.523
					C0.006,7.83,0.005,8.138,0,8.444C0,8.807,0,9.17,0,9.536v20.929c0,0.369,0,0.73,0,1.094c0.005,0.311,0.006,0.611,0.015,0.922
					c0.017,0.67,0.059,1.34,0.179,2.002c0.117,0.67,0.314,1.298,0.625,1.904c0.303,0.596,0.7,1.145,1.178,1.614
					c0.473,0.478,1.02,0.875,1.619,1.179c0.609,0.312,1.231,0.51,1.901,0.631c0.665,0.119,1.338,0.158,2.004,0.177
					c0.309,0.007,0.613,0.011,0.919,0.011C8.806,40,9.168,40,9.535,40h100.6c0.359,0,0.725,0,1.084-0.002
					c0.305,0,0.617-0.004,0.922-0.011c0.67-0.019,1.342-0.058,2-0.177c0.67-0.121,1.293-0.318,1.908-0.631
					c0.598-0.304,1.145-0.701,1.617-1.179c0.477-0.47,0.873-1.019,1.182-1.614c0.307-0.606,0.506-1.234,0.619-1.904
					c0.123-0.662,0.162-1.332,0.186-2.002c0.004-0.311,0.004-0.611,0.004-0.922c0.008-0.363,0.008-0.725,0.008-1.094V9.536
					c0-0.366,0-0.729-0.008-1.092c0-0.307,0-0.614-0.004-0.921c-0.023-0.67-0.062-1.34-0.186-2.002
					c-0.113-0.67-0.312-1.295-0.619-1.903c-0.309-0.599-0.705-1.147-1.182-1.621c-0.473-0.474-1.02-0.872-1.617-1.179
					c-0.615-0.31-1.238-0.51-1.908-0.627c-0.658-0.119-1.33-0.16-2-0.177c-0.305-0.005-0.617-0.011-0.922-0.013
					C110.859,0,110.494,0,110.135,0L110.135,0z"/>
				<path d="M8.445,39.125c-0.305,0-0.602-0.004-0.904-0.011c-0.559-0.016-1.222-0.047-1.869-0.163
					c-0.61-0.11-1.153-0.29-1.657-0.548c-0.521-0.265-0.99-0.606-1.397-1.017c-0.414-0.406-0.754-0.873-1.021-1.396
					c-0.259-0.505-0.437-1.047-0.543-1.657c-0.122-0.673-0.153-1.355-0.166-1.875c-0.006-0.211-0.015-0.913-0.015-0.913V8.444
					c0,0,0.009-0.691,0.015-0.895c0.013-0.524,0.044-1.206,0.166-1.872C1.16,5.064,1.337,4.522,1.597,4.016
					c0.266-0.524,0.606-0.994,1.015-1.398c0.414-0.414,0.884-0.757,1.402-1.022c0.514-0.261,1.055-0.439,1.653-0.544
					C6.341,0.931,7.023,0.9,7.543,0.887l0.902-0.012h102.769l0.913,0.013c0.513,0.013,1.195,0.043,1.858,0.163
					c0.603,0.105,1.147,0.285,1.671,0.548c0.513,0.263,0.982,0.605,1.392,1.016c0.409,0.406,0.752,0.878,1.023,1.404
					c0.258,0.511,0.434,1.053,0.535,1.649c0.116,0.631,0.152,1.279,0.174,1.887c0.003,0.283,0.003,0.587,0.003,0.89
					c0.008,0.375,0.008,0.732,0.008,1.092v20.929c0,0.363,0,0.718-0.008,1.075c0,0.325,0,0.623-0.004,0.93
					c-0.021,0.589-0.057,1.236-0.171,1.854c-0.104,0.613-0.279,1.155-0.54,1.67c-0.27,0.52-0.612,0.989-1.016,1.386
					c-0.413,0.418-0.882,0.759-1.399,1.023c-0.519,0.264-1.048,0.438-1.668,0.55c-0.641,0.116-1.304,0.147-1.869,0.163
					c-0.293,0.007-0.6,0.011-0.897,0.011l-1.084,0.002L8.445,39.125z"/>
			</g>
		</g>
		<g id="XMLID_00000007398013978407805460000016870587204919607217_">
			<g id="XMLID_00000011022298490271894120000016834309948283298459_">
				<g id="XMLID_00000124855272455936454550000001429382771012865177_">
					<path id="XMLID_00000052092440912842892620000007853290062949928862_" class="st1" d="M24.769,20.301
						c-0.025-2.751,2.252-4.089,2.357-4.152c-1.29-1.881-3.289-2.138-3.991-2.158c-1.679-0.176-3.307,1.005-4.163,1.005
						c-0.872,0-2.19-0.987-3.609-0.958c-1.826,0.028-3.536,1.086-4.473,2.728c-1.934,3.348-0.491,8.269,1.361,10.976
						c0.927,1.325,2.01,2.806,3.428,2.753c1.387-0.058,1.905-0.884,3.579-0.884c1.659,0,2.145,0.884,3.591,0.851
						c1.488-0.024,2.426-1.331,3.321-2.669c1.071-1.52,1.501-3.016,1.518-3.093C27.653,24.688,24.797,23.599,24.769,20.301z"/>
					<path id="XMLID_00000114764367474685198560000012595482148929452979_" class="st1" d="M22.037,12.211
						c0.746-0.933,1.256-2.202,1.115-3.491c-1.08,0.048-2.43,0.746-3.208,1.66c-0.688,0.804-1.302,2.122-1.144,3.361
						C20.013,13.831,21.259,13.129,22.037,12.211z"/>
				</g>
			</g>
			<g>
				<path class="st1" d="M42.302,27.14h-4.733l-1.137,3.356h-2.005l4.483-12.418h2.083l4.483,12.418h-2.039L42.302,27.14z
					 M38.059,25.591h3.752l-1.85-5.447H39.91L38.059,25.591z"/>
				<path class="st1" d="M55.16,25.97c0,2.813-1.506,4.621-3.778,4.621c-1.29,0-2.314-0.577-2.849-1.584H48.49v4.484h-1.858V21.442
					h1.799v1.506h0.034c0.517-0.972,1.618-1.601,2.883-1.601C53.645,21.348,55.16,23.164,55.16,25.97z M53.25,25.97
					c0-1.833-0.947-3.038-2.393-3.038c-1.42,0-2.375,1.23-2.375,3.038c0,1.824,0.955,3.046,2.375,3.046
					C52.302,29.016,53.25,27.819,53.25,25.97z"/>
				<path class="st1" d="M65.125,25.97c0,2.813-1.506,4.621-3.778,4.621c-1.29,0-2.314-0.577-2.849-1.584h-0.043v4.484h-1.858
					V21.442h1.799v1.506h0.034c0.517-0.972,1.618-1.601,2.883-1.601C63.61,21.348,65.125,23.164,65.125,25.97z M63.214,25.97
					c0-1.833-0.947-3.038-2.393-3.038c-1.42,0-2.375,1.23-2.375,3.038c0,1.824,0.955,3.046,2.375,3.046
					C62.267,29.016,63.214,27.819,63.214,25.97z"/>
				<path class="st1" d="M71.71,27.036c0.138,1.231,1.334,2.04,2.969,2.04c1.566,0,2.693-0.809,2.693-1.919
					c0-0.964-0.68-1.541-2.289-1.937l-1.609-0.388c-2.28-0.551-3.339-1.617-3.339-3.348c0-2.143,1.867-3.614,4.519-3.614
					c2.624,0,4.423,1.472,4.483,3.614h-1.876c-0.112-1.239-1.137-1.987-2.634-1.987s-2.521,0.757-2.521,1.858
					c0,0.878,0.654,1.395,2.255,1.79l1.368,0.336c2.548,0.603,3.606,1.626,3.606,3.442c0,2.323-1.851,3.778-4.794,3.778
					c-2.754,0-4.613-1.421-4.733-3.667H71.71z"/>
				<path class="st1" d="M83.346,19.3v2.143h1.722v1.472h-1.722v4.991c0,0.775,0.345,1.137,1.102,1.137
					c0.189,0,0.491-0.026,0.611-0.043v1.463c-0.206,0.052-0.619,0.086-1.032,0.086c-1.833,0-2.548-0.688-2.548-2.444v-5.189h-1.316
					v-1.472h1.316V19.3H83.346z"/>
				<path class="st1" d="M86.065,25.97c0-2.849,1.678-4.639,4.294-4.639c2.625,0,4.295,1.79,4.295,4.639
					c0,2.856-1.661,4.639-4.295,4.639C87.726,30.608,86.065,28.826,86.065,25.97z M92.76,25.97c0-1.954-0.896-3.107-2.401-3.107
					s-2.4,1.162-2.4,3.107c0,1.962,0.895,3.106,2.4,3.106S92.76,27.932,92.76,25.97z"/>
				<path class="st1" d="M96.186,21.442h1.772v1.541h0.043c0.284-1.024,1.11-1.636,2.178-1.636c0.267,0,0.49,0.035,0.637,0.069
					v1.738c-0.146-0.061-0.474-0.112-0.835-0.112c-1.196,0-1.937,0.81-1.937,2.083v5.37h-1.858V21.442z"/>
				<path class="st1" d="M109.384,27.837c-0.25,1.644-1.851,2.771-3.898,2.771c-2.634,0-4.269-1.765-4.269-4.596
					c0-2.84,1.644-4.682,4.19-4.682c2.505,0,4.08,1.721,4.08,4.466v0.637h-6.395v0.112c0,1.549,0.973,2.564,2.436,2.564
					c1.032,0,1.842-0.49,2.091-1.273H109.384z M103.102,25.135h4.526c-0.043-1.386-0.93-2.298-2.221-2.298
					C104.126,22.837,103.197,23.767,103.102,25.135z"/>
			</g>
		</g>
	</g>
	<g>
		<path class="st1" d="M36.739,11.253h0.801c0.71,0,1.162-0.398,1.162-0.976v-0.009c0-0.543-0.415-0.888-1.116-0.888
			c-0.685,0-1.133,0.328-1.191,0.888l-0.004,0.029h-0.893l0.008-0.066c0.083-1.029,0.888-1.668,2.108-1.668
			c1.179,0,2.009,0.664,2.009,1.61v0.008c0,0.656-0.46,1.208-1.125,1.361v0.07c0.776,0.079,1.332,0.614,1.332,1.453v0.008
			c0,1.013-0.976,1.769-2.237,1.769c-1.286,0-2.179-0.681-2.249-1.714v-0.042h0.904l0.004,0.029c0.062,0.568,0.581,0.909,1.34,0.909
			c0.776,0,1.291-0.398,1.291-0.996v-0.009c0-0.605-0.481-0.983-1.32-0.983h-0.826V11.253z"/>
		<path class="st1" d="M40.829,13.432v-0.009c0-0.805,0.606-1.273,1.681-1.34l1.22-0.071v-0.398c0-0.493-0.311-0.768-0.921-0.768
			c-0.498,0-0.826,0.183-0.934,0.502l-0.004,0.017h-0.867l0.004-0.028c0.108-0.739,0.818-1.233,1.843-1.233
			c1.133,0,1.772,0.564,1.772,1.511v3.084H43.73v-0.639h-0.07c-0.266,0.456-0.739,0.714-1.336,0.714
			C41.464,14.773,40.829,14.249,40.829,13.432z M42.564,14.054c0.672,0,1.166-0.439,1.166-1.021v-0.386l-1.1,0.07
			c-0.623,0.037-0.905,0.262-0.905,0.668v0.009C41.726,13.81,42.079,14.054,42.564,14.054z"/>
		<path class="st1" d="M46.082,10.191h2.038c0.884,0,1.403,0.456,1.403,1.157v0.009c0,0.461-0.319,0.88-0.764,0.963v0.07
			c0.585,0.07,0.967,0.478,0.967,1.013v0.009c0,0.771-0.593,1.286-1.585,1.286h-2.059V10.191z M47.842,12.078
			c0.539,0,0.792-0.216,0.792-0.614v-0.008c0-0.361-0.22-0.606-0.697-0.606h-0.963v1.229H47.842z M48.025,14.033
			c0.519,0,0.78-0.24,0.78-0.655v-0.009c0-0.436-0.295-0.644-0.896-0.644h-0.934v1.308H48.025z"/>
		<path class="st1" d="M50.749,13.432v-0.009c0-0.805,0.606-1.273,1.681-1.34l1.221-0.071v-0.398c0-0.493-0.312-0.768-0.922-0.768
			c-0.498,0-0.826,0.183-0.934,0.502l-0.004,0.017h-0.868l0.004-0.028c0.107-0.739,0.817-1.233,1.843-1.233
			c1.133,0,1.772,0.564,1.772,1.511v3.084h-0.892v-0.639H53.58c-0.266,0.456-0.739,0.714-1.336,0.714
			C51.384,14.773,50.749,14.249,50.749,13.432z M52.484,14.054c0.672,0,1.167-0.439,1.167-1.021v-0.386l-1.1,0.07
			c-0.623,0.037-0.905,0.262-0.905,0.668v0.009C51.646,13.81,51.999,14.054,52.484,14.054z"/>
		<path class="st1" d="M58.95,12.722h-2.046v1.976h-0.901v-4.507h0.901v1.817h2.046v-1.817h0.896v4.507H58.95V12.722z"/>
		<path class="st1" d="M64.696,10.9h-1.419v3.798h-0.901V10.9h-1.419v-0.709h3.739V10.9z"/>
		<path class="st1" d="M65.487,13.432v-0.009c0-0.805,0.606-1.273,1.681-1.34l1.22-0.071v-0.398c0-0.493-0.311-0.768-0.921-0.768
			c-0.498,0-0.826,0.183-0.934,0.502l-0.004,0.017h-0.867l0.004-0.028c0.108-0.739,0.818-1.233,1.843-1.233
			c1.133,0,1.772,0.564,1.772,1.511v3.084h-0.893v-0.639h-0.07c-0.266,0.456-0.739,0.714-1.336,0.714
			C66.123,14.773,65.487,14.249,65.487,13.432z M67.222,14.054c0.672,0,1.166-0.439,1.166-1.021v-0.386l-1.1,0.07
			c-0.623,0.037-0.905,0.262-0.905,0.668v0.009C66.384,13.81,66.737,14.054,67.222,14.054z"/>
		<path class="st1" d="M70.267,14.697l1.834-2.398l-1.764-2.108h1.042l1.44,1.854h0.257v-1.854h0.872v1.854h0.261l1.44-1.854h1.029
			l-1.751,2.096l1.847,2.411h-1.088l-1.473-2.009h-0.266v2.009h-0.872v-2.009h-0.262l-1.478,2.009H70.267z"/>
		<path class="st1" d="M77.778,10.191h0.892v3.162h0.079l2.038-3.162h0.893v4.507h-0.893v-3.175h-0.079l-2.038,3.175h-0.892V10.191z
			"/>
		<path class="st1" d="M86.534,10.9h-1.42v3.798h-0.9V10.9h-1.42v-0.709h3.74V10.9z"/>
		<path class="st1" d="M87.644,10.191h0.893v3.162h0.079l2.037-3.162h0.893v4.507h-0.893v-3.175h-0.078l-2.038,3.175h-0.893V10.191z
			"/>
		<path class="st1" d="M95.46,10.191h2.038c0.884,0,1.402,0.456,1.402,1.157v0.009c0,0.461-0.319,0.88-0.764,0.963v0.07
			c0.586,0.07,0.968,0.478,0.968,1.013v0.009c0,0.771-0.594,1.286-1.586,1.286H95.46V10.191z M97.22,12.078
			c0.54,0,0.793-0.216,0.793-0.614v-0.008c0-0.361-0.22-0.606-0.697-0.606h-0.963v1.229H97.22z M97.403,14.033
			c0.52,0,0.78-0.24,0.78-0.655v-0.009c0-0.436-0.294-0.644-0.896-0.644h-0.934v1.308H97.403z"/>
	</g>
</g>
</svg>
